<?xml version="1.0" standalone="no"?><!DOCTYPE svg PUBLIC "-//W3C//DTD SVG 1.1//EN" "http://www.w3.org/Graphics/SVG/1.1/DTD/svg11.dtd"><svg t="1560501163709" class="icon" style="" viewBox="0 0 1024 1024" version="1.1" xmlns="http://www.w3.org/2000/svg" p-id="4317" xmlns:xlink="http://www.w3.org/1999/xlink" width="200" height="200"><defs><style type="text/css"></style></defs><path d="M998.733 930.989l-410.781-410.783 410.77-410.771c0.005-0.005 0.010-0.007 0.016-0.014 21.271-21.272 21.271-55.755 0.001-77.022-21.269-21.269-55.753-21.269-77.022 0.002-0.005 0.004-0.010 0.010-0.015 0.017l-0.002-0.003-410.769 410.77-410.771-410.767c-0.005-0.006-0.010-0.013-0.015-0.017-21.27-21.271-55.755-21.271-77.024-0.002-21.267 21.267-21.27 55.75 0.001 77.022 0.006 0.006 0.011 0.009 0.016 0.014v0.003l410.769 410.768-410.781 410.783c-0.001 0.003-0.002 0.003-0.002 0.003-21.27 21.269-21.27 55.752 0 77.022 21.266 21.265 55.752 21.265 77.020 0 0.001-0.002 0.002-0.002 0.002-0.002l410.783-410.782 410.782 410.782c0 0 0.002 0 0.003 0.002 21.268 21.265 55.753 21.265 77.020 0 21.272-21.27 21.272-55.753 0-77.022 0.001 0 0 0-0.002-0.003z" p-id="4318" fill="#ffffff"></path></svg>