<?xml version="1.0" standalone="no"?><!DOCTYPE svg PUBLIC "-//W3C//DTD SVG 1.1//EN" "http://www.w3.org/Graphics/SVG/1.1/DTD/svg11.dtd"><svg t="1547087747190" class="icon" style="" viewBox="0 0 1024 1024" version="1.1" xmlns="http://www.w3.org/2000/svg" p-id="4870" xmlns:xlink="http://www.w3.org/1999/xlink" width="200" height="200"><defs><style type="text/css"></style></defs><path d="M618.951111 624.64H424.391111c-45.511111 0-108.088889 0-108.088889-68.266667v-53.475555c0-110.364444 89.884444-196.835556 205.937778-196.835556S728.177778 392.533333 728.177778 502.897778v53.475555c-1.137778 68.266667-62.577778 68.266667-109.226667 68.266667z m-96.711111-301.511111c-105.813333 0-187.733333 78.506667-187.733333 179.768889v53.475555c0 43.235556 29.582222 51.2 91.022222 51.2h194.56c61.44 0 91.022222-7.964444 91.022222-51.2v-53.475555c-1.137778-101.262222-83.057778-179.768889-188.871111-179.768889z" p-id="4871"></path><path d="M574.577778 323.128889c-4.551111 0-9.102222-3.413333-9.102222-9.102222v-96.711111H477.866667v96.711111c0 4.551111-3.413333 9.102222-9.102223 9.102222-4.551111 0-9.102222-3.413333-9.102222-9.102222v-104.675556c0-4.551111 3.413333-9.102222 9.102222-9.102222h104.675556c4.551111 0 9.102222 3.413333 9.102222 9.102222v104.675556c1.137778 5.688889-3.413333 9.102222-7.964444 9.102222z" p-id="4872"></path><path d="M610.986667 218.453333H425.528889c-48.924444 0-88.746667-39.822222-88.746667-88.746666 0-4.551111 3.413333-9.102222 9.102222-9.102223h345.884445c4.551111 0 9.102222 3.413333 9.102222 9.102223-1.137778 48.924444-40.96 88.746667-89.884444 88.746666z m-256-80.782222c4.551111 35.271111 34.133333 62.577778 71.68 62.577778h185.457777c36.408889 0 67.128889-27.306667 71.68-62.577778H354.986667zM522.24 903.395556c-4.551111 0-9.102222-3.413333-9.102222-9.102223V615.537778c0-4.551111 3.413333-9.102222 9.102222-9.102222s9.102222 3.413333 9.102222 9.102222v278.755555c-1.137778 4.551111-4.551111 9.102222-9.102222 9.102223z" p-id="4873"></path></svg>